PathFileType	4	TRC_standard.trc
DataRate	CameraRate	NumFrames	NumMarkers	Units	OrigDataRate	OrigDataStartFrame	OrigNumFrames
100.0	100.0	9	37	mm	100.0	1397	2234	
Frame#	Time	T10			C7			CLAV			RACR1			LACR1			RPSI			LPSI			RASI			LASI			LTH2			LTH3			LTH1			RTH2			RTH3			RTH1			RLFC			RMFC			RTB1			RTB3			RTB2			LLFC			LMFC			LTB1			LTB3			LTB2			LLMAL			LCAL			LMMAL			RLMAL			RMMAL			RCAL			RMT5			RMT1			RToe			LMT5			LMT1			LToe			
		X1	Y1	Z1	X2	Y2	Z2	X3	Y3	Z3	X4	Y4	Z4	X5	Y5	Z5	X6	Y6	Z6	X7	Y7	Z7	X8	Y8	Z8	X9	Y9	Z9	X10	Y10	Z10	X11	Y11	Z11	X12	Y12	Z12	X13	Y13	Z13	X14	Y14	Z14	X15	Y15	Z15	X16	Y16	Z16	X17	Y17	Z17	X18	Y18	Z18	X19	Y19	Z19	X20	Y20	Z20	X21	Y21	Z21	X22	Y22	Z22	X23	Y23	Z23	X24	Y24	Z24	X25	Y25	Z25	X26	Y26	Z26	X27	Y27	Z27	X28	Y28	Z28	X29	Y29	Z29	X30	Y30	Z30	X31	Y31	Z31	X32	Y32	Z32	X33	Y33	Z33	X34	Y34	Z34	X35	Y35	Z35	X36	Y36	Z36	X37	Y37	Z37	
1397	13.96	703.50244	1242.0592	-494.6275	702.56018	1498.2258	-362.7565	719.06378	1338.2395	-273.38095	547.73737	1442.7123	-330.5817	883.95709	1441.3677	-365.45779	654.09686	1030.3875	-568.57837	742.26184	1029.1393	-567.94	573.33759	987.47955	-337.02429	826.92853	991.00751	-334.11093	876.61438	737.66772	-296.88718	907.05988	796.1554	-357.92114	856.26672	877.97614	-329.75076	582.30621	700.76544	-355.94327	533.0318	770.85046	-378.86865	595.08234	817.02716	-330.07016	579.1264	495.11151	-460.77332				632.90625	382.57812	-445.93723	608.4953	307.7135	-479.69739	637.7995	257.4776	-485.44983	867.24573	526.03082	-290.90002				825.63031	412.65869	-260.83389	855.19769	354.50015	-298.53922	818.54633	300.21335	-299.27109	847.26807	120.37012	-400.54733				799.09668	81.681335	-458.48486	623.29138	83.005524	-576.97009				656.66809	47.680103	-648.77344	623.13495	44.725437	-474.6214	701.56458	47.072891	-447.61594				865.65375	66.03215	-346.21207	803.96948	67.674202	-263.91595			
1398	13.97	703.7345	1241.5996	-495.22974	702.97729	1497.7422	-363.33554	719.69434	1337.7676	-273.97174	548.21887	1442.2107	-330.78702	884.38647	1440.8967	-366.62756	654.83264	1030.0347	-569.28339	742.97968	1028.7681	-568.59161	573.74103	986.77289	-337.8374	827.36804	990.63708	-334.65411	876.98401	738.47906	-297.3147	907.53387	796.04791	-357.62051	856.6853	877.96136	-330.01315	582.89404	699.90723	-358.84351	533.67035	770.12921	-381.0903	595.64478	815.90985	-331.88409	579.32581	494.83817	-465.71811				633.07001	382.17212	-451.80182	608.58319	307.54126	-486.09482	637.85291	257.33054	-492.22269	867.04761	526.62061	-288.6319				825.13098	414.09171	-254.84064	855.26044	354.50827	-289.72388	818.70587	300.19232	-288.46561	848.56799	116.09421	-381.50977				801.06708	74.823738	-438.15564	623.10736	83.665176	-584.97809				656.3031	48.851559	-657.12109	623.01813	44.753105	-483.0936	701.38336	47.107864	-456.06686				866.21002	66.567009	-323.95773	804.30334	69.224319	-242.99576			
1399	13.98	704.04004	1241.1266	-495.79587	703.44415	1497.2501	-363.88904	720.35394	1337.2859	-274.52515	548.74304	1441.6935	-330.98309	884.85962	1440.4203	-367.7215	655.61182	1029.6761	-569.94067	743.7392	1028.3881	-569.19012	574.20703	986.06982	-338.59799	827.87219	990.2467	-335.15076	877.6925	739.53271	-298.38644	907.8559	795.50262	-357.13739	857.16376	877.85327	-330.26987	583.54498	699.07916	-361.70273	534.3667	769.42755	-383.26016	596.26648	814.81152	-333.64954	579.57593	494.60516	-470.55362				633.27991	381.80746	-457.58966	608.70477	307.42062	-492.42651	637.93475	257.24088	-498.93927	866.88275	527.05603	-286.80627				824.63098	415.42657	-249.39536	855.29999	354.52399	-281.46637	818.82538	300.25305	-278.26416	849.75317	112.26328	-363.0549				802.90887	68.558182	-418.32498	622.91266	84.420364	-592.96558				655.92657	50.153732	-665.45898	622.90808	44.804737	-491.54642	701.20654	47.14444	-464.52081				866.68976	67.438324	-300.26743	804.41119	71.10675	-222.92348			
1400	13.99	704.41937	1240.6434	-496.31863	703.96301	1496.7546	-364.41281	721.04602	1336.8003	-275.03601	549.3125	1441.1674	-331.16623	885.37982	1439.9423	-368.73553	656.43518	1029.3138	-570.53992	744.54089	1028.0015	-569.72589	574.73358	985.37634	-339.29486	828.43951	989.84161	-335.59091	878.77643	740.89777	-300.1279	907.96094	794.41766	-356.34991	857.70135	877.65863	-330.50638	584.25488	698.2818	-364.50998	535.11877	768.74854	-385.36737	596.94348	813.7348	-335.35297	579.87866	494.4151	-475.2709				633.53668	381.48596	-463.29355	608.8609	307.35526	-498.6875	638.04694	257.21222	-505.59641	866.75623	527.33649	-285.39774				824.13422	416.64944	-244.50375	855.31683	354.53793	-273.79849	818.90137	300.38083	-268.72168	850.81201	108.87387	-345.33099				804.60547	62.896034	-399.17044	622.70923	85.27636	-600.93237				655.54144	51.59174	-673.7868	622.80408	44.881393	-499.97687	701.03394	47.181999	-472.97565				867.07806	68.593384	-275.59967	804.28821	73.269829	-203.8345			
1401	14	704.87231	1240.153	-496.79126	704.53662	1496.2609	-364.90335	721.77399	1336.3175	-275.49957	549.92957	1440.6388	-331.33322	885.95081	1439.4666	-369.66656	657.30389	1028.9495	-571.07043	745.38562	1027.6108	-570.18915	575.31885	984.698	-339.91696	829.06824	989.42743	-335.9649	880.25812	742.62909	-302.54257	907.78717	792.69861	-355.14056	858.29669	877.38507	-330.70819	585.01941	697.51593	-367.25311	535.92432	768.09467	-387.40054	597.67163	812.68256	-336.98047	580.23541	494.27014	-479.86139				633.8399	381.20865	-468.90576	609.05231	307.3486	-504.87274	638.1908	257.24799	-512.19104	866.67194	527.46326	-284.37793				823.6449	417.74707	-240.16757	855.31177	354.53943	-266.74817	818.93158	300.55719	-259.88831	851.73608	105.91062	-328.48505				806.14349	57.835331	-380.8721	622.49933	86.237885	-608.87775				655.15076	53.170097	-682.10455	622.70532	44.983597	-508.38251	700.86499	47.219723	-481.42917				867.35638	69.966309	-250.61888	803.93677	75.647278	-185.86305			
1402	14.01	705.3988	1239.6586	-497.2074	705.1673	1495.7739	-365.35754	722.54102	1335.8439	-275.91153	550.59668	1440.1141	-331.48123	886.57562	1438.9974	-370.5123	658.21857	1028.5856	-571.52209	746.27435	1027.2191	-570.57062	575.9613	984.03973	-340.4538	829.75641	989.00946	-336.26355	882.14392	744.76019	-305.60751	907.28241	790.27014	-353.40887	858.94806	877.04089	-330.86115	585.83459	696.7818	-369.91922	536.78168	767.4679	-389.3479	598.44708	811.65717	-338.51813	580.64716	494.17184	-484.31638				634.18848	380.97607	-474.4183	609.2785	307.40381	-510.9769	638.36707	257.35101	-518.71967	866.63251	527.44067	-283.71619				823.16663	418.70758	-236.38458	855.28625	354.51675	-260.33871	818.91504	300.76089	-251.80852	852.52057	103.3477	-312.65927				807.51324	53.361671	-363.60825	622.28571	87.30925	-616.80109				654.75836	54.892879	-690.41119	622.61072	45.11129	-516.76141	700.69879	47.256546	-489.87918				867.50482	71.481445	-226.10667	803.36694	78.160309	-169.13847			
1403	14.02	705.99872	1239.1628	-497.56085	705.85742	1495.2983	-365.77283	723.35065	1335.3856	-276.26782	551.31641	1439.5997	-331.60782	887.258	1438.5383	-371.27103	659.1795	1028.2235	-571.8847	747.2074	1026.8295	-570.86163	576.65924	983.40601	-340.89526	830.50238	988.59277	-336.47806	884.42084	747.29913	-309.27051	906.41211	787.08887	-351.08414	859.65363	876.63507	-330.95163	586.69641	696.07959	-372.49423	537.68896	766.86987	-391.19727	599.26703	810.66077	-339.95215	581.11444	494.12109	-488.62708				634.57996	380.78787	-479.82233	609.5387	307.52359	-516.99402	638.57544	257.52359	-525.17828	866.63953	527.27466	-283.37988				822.70337	419.52023	-233.14862	855.24219	354.45755	-254.58876	818.8526	300.9686	-244.52005	853.16431	101.15065	-297.9874				808.7088	49.449764	-347.55029	622.07092	88.494217	-624.70099				654.36841	56.763954	-698.70526	622.51868	45.263767	-525.11249	700.53473	47.291058	-498.32385				867.50604	73.057007	-202.85478	802.59576	80.720291	-153.78151			
1404	14.03	706.67151	1238.6683	-497.84619	706.60938	1494.8387	-366.14688	724.20593	1334.9491	-276.56485	552.09088	1439.1019	-331.71085	888.00079	1438.0929	-371.94153	660.18695	1027.8657	-572.14856	748.1853	1026.4453	-571.05396	577.41162	982.80078	-341.23203	831.3045	988.1828	-336.60049	887.0567	750.22522	-313.44867	905.16565	783.15479	-348.13751	860.4115	876.17694	-330.96701	587.60114	695.40942	-374.96329	538.64496	766.30151	-392.936	600.12872	809.69537	-341.26904	581.63702	494.11798	-492.78418				635.0116	380.64313	-485.10825	609.83112	307.7103	-522.91711	638.81488	257.76755	-531.56177	866.69342	526.97375	-283.33551				822.25867	420.17627	-230.44971	855.18188	354.34961	-249.51125	818.74609	301.15579	-238.05286	853.66937	99.278275	-284.59103				809.72858	46.065178	-332.85797	621.85767	89.796227	-632.57538				653.98572	58.787205	-706.98395	622.42786	45.439598	-533.43567	700.37195	47.321495	-506.7619				867.34753	74.608871	-181.56268	801.64661	83.232208	-139.90005			
1405	14.04	707.41663	1238.1775	-498.05838	707.42517	1494.3992	-366.47812	725.1098	1334.5406	-276.79929	552.92242	1438.6266	-331.78848	888.80713	1437.6647	-372.52332	661.24005	1027.5143	-572.30505	749.20776	1026.0697	-571.14038	578.21765	982.22723	-341.45554	832.16101	987.78424	-336.62366	890.00049	753.48938	-318.03043	903.56061	778.51971	-344.58969	861.21985	875.67664	-330.89566	588.54559	694.77081	-377.3107	539.64868	765.763	-394.5513	601.03046	808.76276	-342.45609	582.21411	494.16153	-496.77774				635.47906	380.53995	-490.26538	610.15332	307.96591	-528.73834	639.08331	258.08411	-537.86407	866.79382	526.54785	-283.54877				821.83612	420.66867	-228.2742	855.10822	354.18109	-245.11359	818.59875	301.29822	-232.42851	854.04089	97.684952	-272.57574				810.57513	43.166519	-319.67365	621.64899	91.218315	-640.42126				653.61615	60.966812	-715.24255	622.3371	45.636604	-541.73181	700.20972	47.345688	-515.19336				867.02502	76.053902	-162.76115	800.54834	85.598602	-127.58541			
